# xmcd CD database file
# Copyright (C) 1993-1996 Ti Kan
#
# Track frame offsets:
#	150
#	5337
#	28180
#	49252
#	68367
#	93470
#	115860
#	117735
#	134187
#	135870
#	156282
#	179060
#	180487
#	202992
#	205097
#	232597
#	250712
#	253152
#
# Disc length: 3510 seconds
#
# Revision: 1
# Processed by: cddbd v1.4b41PL1 Copyright (c) Steve Scherf et al.
# Submitted via: CDValet v3.01 - Copyright (c) 1997 Greg Leichner
#
DISCID=f80db412
DTITLE=Harmony - Let There Be Harmony
DYEAR=1900
DGENRE=
TTITLE0=Looking At A Black Man
TTITLE1=I Want To Thank You
TTITLE2=Poundcake
TTITLE3=What You Need
TTITLE4=Take My Breath Away
TTITLE5=Sing Unto God
TTITLE6=Exhibit A
TTITLE7=Tear It Up
TTITLE8=Exhibit B
TTITLE9=Mother Africa
TTITLE10=Your Love Ain't Right
TTITLE11=Exhibit C
TTITLE12=Art Of War
TTITLE13=Exhibit D
TTITLE14=We The People 
TTITLE15=There's Only One
TTITLE16=Exhibit E
TTITLE17=Eye Witness Blues
EXTD=
EXTT0=
EXTT1=
EXTT2=
EXTT3=
EXTT4=
EXTT5=
EXTT6=
EXTT7=
EXTT8=
EXTT9=
EXTT10=
EXTT11=
EXTT12=
EXTT13=
EXTT14=
EXTT15=
EXTT16=
EXTT17=
PLAYORDER=
